<svg width="38" height="54" viewBox="0 0 38 54" fill="none" xmlns="http://www.w3.org/2000/svg">
<g clip-path="url(#clip0_0_8)">
<path d="M19 39.4687C13.3444 39.4799 7.84121 37.6361 3.33392 34.22L0.764763 38.4231C0.606425 38.6857 0.556734 38.9996 0.626255 39.2982C0.695777 39.5968 0.879027 39.8565 1.13704 40.0221C6.43277 43.5335 12.6459 45.4062 19 45.4062C25.3541 45.4062 31.5673 43.5335 36.863 40.0221C37.121 39.8565 37.3042 39.5968 37.3738 39.2982C37.4433 38.9996 37.3936 38.6857 37.2353 38.4231L34.6661 34.22C30.1588 37.6361 24.6556 39.4799 19 39.4687Z" fill="#8A490E"/>
<path d="M37.2353 38.4231L34.6661 34.22C34.2617 34.5263 33.8455 34.8173 33.4228 35.1005L35.454 38.4255C35.6123 38.688 35.662 39.002 35.5925 39.3006C35.523 39.5992 35.3397 39.8589 35.0817 40.0245C30.0445 43.3799 24.16 45.2401 18.1094 45.3896C18.4062 45.3973 18.7031 45.4062 19 45.4062C25.3563 45.4216 31.5739 43.5475 36.863 40.0221C37.121 39.8565 37.3042 39.5968 37.3738 39.2982C37.4433 38.9996 37.3936 38.6857 37.2353 38.4231Z" fill="#A16D3E"/>
<path d="M34.6662 34.22C30.1534 37.6258 24.6537 39.4682 19.0001 39.4682C13.3464 39.4682 7.84672 37.6258 3.33398 34.22L15.5599 14.2225L19.0001 8.59375L22.4403 14.2225L34.6662 34.22Z" fill="#F6B361"/>
<path d="M22.4402 14.2225L19 8.59375L18.1094 10.0508L20.6589 14.2225L32.8848 34.22C28.6199 37.4511 23.4572 39.2786 18.1094 39.4503C18.4062 39.4604 18.7031 39.4688 19 39.4688C24.6555 39.4796 30.1586 37.6358 34.6661 34.22L22.4402 14.2225Z" fill="#F8C281"/>
<path d="M22.3548 14.2225C21.8558 14.4284 21.321 14.5333 20.7813 14.5312C20.1649 14.5307 19.5565 14.3928 19.0001 14.1275C18.4437 14.3928 17.8352 14.5307 17.2188 14.5312C16.6791 14.5333 16.1443 14.4284 15.6454 14.2225L19.0001 8.59375L22.3548 14.2225Z" fill="#FFFF97"/>
<path d="M19 8.59375L18.1094 10.0882L20.5734 14.2225C20.3539 14.3123 20.1268 14.3824 19.8948 14.4321C20.7168 14.6161 21.5756 14.5429 22.3547 14.2225L19 8.59375Z" fill="#FFFFAC"/>
<path d="M37.7417 38.1138L35.1726 33.9106L19.5148 8.29686L19.5101 8.28974L19.5071 8.28439C19.488 8.25595 19.4659 8.22967 19.4412 8.20602C19.4311 8.19474 19.4234 8.18108 19.4127 8.17099C19.2974 8.07328 19.1512 8.01965 19 8.01965C18.8489 8.01965 18.7027 8.07328 18.5874 8.17099C18.5761 8.18167 18.5678 8.19592 18.5571 8.2078C18.5332 8.23114 18.5117 8.2568 18.493 8.28439L18.49 8.28914L18.4852 8.29686L2.82746 33.9106L0.258304 38.1138C0.0208864 38.5073 -0.054603 38.9776 0.0477239 39.4257C0.150051 39.8738 0.422213 40.2647 0.806929 40.5161C6.20046 44.0925 12.5285 46 19 46C25.4716 46 31.7996 44.0925 37.1931 40.5161C37.5778 40.2647 37.85 39.8738 37.9523 39.4257C38.0546 38.9776 37.9792 38.5073 37.7417 38.1138ZM33.6656 34.2141C33.5326 34.3085 33.3997 34.4017 33.2655 34.4931C33.1206 34.5925 32.9747 34.6898 32.8279 34.7852C32.6901 34.8749 32.5518 34.9634 32.4122 35.0506C32.2727 35.1379 32.1183 35.2323 31.9699 35.3208C31.8215 35.4093 31.6861 35.4894 31.543 35.5708C31.3999 35.6521 31.2461 35.7382 31.0947 35.8201C30.9433 35.9021 30.8044 35.9775 30.6583 36.0529C30.5122 36.1283 30.3537 36.2079 30.2005 36.2833C30.0473 36.3587 29.9036 36.4287 29.757 36.4982C29.6103 36.5677 29.4476 36.6401 29.2927 36.709C29.1377 36.7779 28.9911 36.8432 28.8391 36.9067C28.6871 36.9702 28.525 37.0355 28.3641 37.0979C28.2031 37.1602 28.0601 37.2166 27.9069 37.276C27.7537 37.3354 27.5839 37.3948 27.4218 37.4494C27.2597 37.504 27.1154 37.5575 26.9616 37.6085C26.7977 37.662 26.6327 37.7124 26.4676 37.7629C26.3132 37.8098 26.1589 37.8585 26.0039 37.9024C25.8353 37.9505 25.6661 37.9945 25.4962 38.0384C25.3425 38.0788 25.1887 38.1209 25.0343 38.1571C24.8609 38.1993 24.6858 38.2361 24.5118 38.2759C24.3586 38.3097 24.206 38.3448 24.0522 38.3756C23.8741 38.4119 23.6906 38.4427 23.5096 38.4748C23.3599 38.5015 23.2127 38.53 23.0607 38.5544C22.8719 38.584 22.6819 38.6084 22.4919 38.6345C22.347 38.6541 22.2033 38.6761 22.0578 38.6939C21.8583 38.7176 21.6576 38.7355 21.457 38.7533C21.3198 38.7663 21.1832 38.7824 21.0455 38.793C20.8228 38.8109 20.5978 38.8215 20.374 38.8334C20.2552 38.8394 20.1418 38.8489 20.0254 38.8536C19.6858 38.8679 19.344 38.875 19 38.875C18.656 38.875 18.3134 38.8683 17.9722 38.8548C17.8535 38.85 17.7401 38.8405 17.6237 38.8346C17.3999 38.8227 17.1748 38.812 16.9522 38.7942C16.8144 38.7835 16.6779 38.7675 16.5407 38.7545C16.34 38.7355 16.1393 38.7176 15.9398 38.6951C15.7944 38.6779 15.6501 38.6559 15.5052 38.6357C15.3158 38.6096 15.1258 38.5852 14.937 38.5555C14.7868 38.5312 14.6401 38.5027 14.4875 38.476C14.3094 38.4439 14.1253 38.413 13.9454 38.3768C13.7916 38.346 13.6391 38.3109 13.4859 38.2771C13.3119 38.2385 13.1367 38.2017 12.9634 38.1583C12.809 38.1209 12.6552 38.0788 12.5014 38.0396C12.3316 37.9956 12.1624 37.9517 11.9938 37.9036C11.8388 37.8597 11.6844 37.811 11.5301 37.7641C11.365 37.7136 11.1999 37.6631 11.0361 37.6097C10.8823 37.5586 10.7291 37.504 10.5759 37.4506C10.4138 37.3912 10.2517 37.3372 10.0908 37.2772C9.9299 37.2172 9.78562 37.1585 9.63362 37.0991C9.48162 37.0397 9.31834 36.9738 9.15862 36.9079C8.9989 36.842 8.8558 36.7773 8.70499 36.7102C8.55418 36.6431 8.39446 36.5718 8.24068 36.4994C8.0869 36.427 7.9438 36.3575 7.79655 36.2845C7.6493 36.2114 7.49137 36.133 7.33996 36.0547C7.18855 35.9763 7.04784 35.9003 6.90296 35.8213C6.75809 35.7424 6.60312 35.6569 6.45468 35.572C6.30624 35.487 6.16968 35.4063 6.02777 35.322C5.88587 35.2377 5.7309 35.1439 5.58543 35.0518C5.43996 34.9598 5.30815 34.8737 5.1698 34.7864C5.03146 34.6991 4.87709 34.5935 4.73221 34.4943C4.59802 34.4029 4.46502 34.3096 4.33202 34.2152C4.26196 34.1654 4.19249 34.1143 4.12302 34.0632L15.83 14.9178C16.8719 15.2334 17.9905 15.1833 19 14.7759C20.009 15.1861 21.1284 15.2364 22.1701 14.9184L33.8735 34.062C33.804 34.1131 33.7345 34.1642 33.6656 34.2141ZM21.4564 13.8745C20.7107 14.0141 19.9401 13.9147 19.2541 13.5907C19.1747 13.5531 19.0879 13.5336 19 13.5336C18.9121 13.5336 18.8253 13.5531 18.7459 13.5907C18.06 13.9146 17.2893 14.0139 16.5437 13.8745L19 9.75333L21.4564 13.8745ZM36.5329 39.5281C31.3348 42.9741 25.2366 44.8118 19 44.8118C12.7635 44.8118 6.66523 42.9741 1.46718 39.5281C1.33642 39.4479 1.24256 39.3194 1.20599 39.1704C1.16942 39.0215 1.19308 38.8641 1.27184 38.7325L3.50315 35.0833C3.56549 35.1278 3.62962 35.1694 3.69196 35.2133C3.82377 35.3071 3.95677 35.3986 4.09037 35.4894C4.2487 35.5983 4.40921 35.7054 4.5719 35.8106C4.70727 35.8985 4.84383 35.9846 4.9804 36.0701C5.14309 36.1714 5.30617 36.2704 5.46965 36.367C5.60898 36.4493 5.74871 36.5307 5.88884 36.611C6.05449 36.7054 6.22015 36.7975 6.38759 36.8877C6.52929 36.9669 6.67179 37.0427 6.81508 37.1151C6.98252 37.2018 7.15095 37.2865 7.32037 37.3692C7.46584 37.4411 7.6119 37.5117 7.75855 37.58C7.92896 37.6602 8.09996 37.7368 8.27215 37.8128C8.41999 37.8781 8.56902 37.9434 8.71687 38.0057C8.89024 38.0788 9.06421 38.1482 9.23877 38.2171C9.38899 38.2765 9.5398 38.3359 9.69121 38.3952C9.86934 38.4606 10.0439 38.5229 10.2214 38.5846C10.3734 38.6381 10.5254 38.6915 10.6792 38.742C10.8573 38.8014 11.0355 38.8554 11.2189 38.9106C11.3727 38.9575 11.5259 39.005 11.6809 39.049C11.8637 39.1012 12.0478 39.1487 12.2325 39.1968C12.3862 39.2372 12.5394 39.2787 12.6938 39.3155C12.8814 39.3607 13.0696 39.4011 13.2585 39.4426C13.4128 39.4759 13.566 39.5115 13.721 39.5424C13.9134 39.581 14.1075 39.6142 14.3005 39.648C14.4531 39.6754 14.6045 39.7039 14.7571 39.7282C14.9572 39.7603 15.1585 39.7876 15.3591 39.8131C15.5082 39.8333 15.656 39.8565 15.8056 39.8725C16.017 39.898 16.2302 39.9164 16.4433 39.9366C16.5829 39.9497 16.7218 39.9657 16.859 39.977C17.0965 39.9954 17.334 40.0073 17.5715 40.0197C17.6902 40.0257 17.809 40.0352 17.9277 40.0399C18.2836 40.055 18.641 40.0625 19 40.0625C19.359 40.0625 19.7167 40.0554 20.0729 40.0411C20.1917 40.0364 20.3104 40.0269 20.4262 40.0209C20.6637 40.0085 20.9012 39.9966 21.1387 39.9782C21.2782 39.9675 21.4172 39.9509 21.5543 39.9378C21.7675 39.9176 21.9806 39.8992 22.1926 39.8737C22.3422 39.8565 22.4895 39.8333 22.6391 39.8143C22.8398 39.7876 23.0411 39.7615 23.2412 39.7294C23.3938 39.705 23.5452 39.6765 23.6978 39.6492C23.8907 39.6154 24.0849 39.5821 24.2773 39.5435C24.4322 39.5127 24.5854 39.477 24.7398 39.4438C24.9286 39.4022 25.1168 39.3619 25.3045 39.3167C25.4588 39.2793 25.612 39.2378 25.7658 39.198C25.9505 39.1499 26.1345 39.1024 26.3174 39.0501C26.4724 39.0062 26.6256 38.9587 26.7793 38.9118C26.9575 38.8566 27.1403 38.802 27.3191 38.7432C27.4728 38.6927 27.6248 38.6393 27.7768 38.5858C27.955 38.5265 28.1331 38.4617 28.3071 38.3964C28.4585 38.337 28.6087 38.2777 28.7589 38.2183C28.9341 38.1488 29.108 38.0794 29.2814 38.0063C29.4304 37.944 29.5783 37.8793 29.7261 37.814C29.8977 37.7374 30.0693 37.6608 30.2397 37.5806C30.3864 37.5123 30.5324 37.4417 30.6779 37.3698C30.8469 37.2867 31.0153 37.202 31.1832 37.1157C31.3261 37.0417 31.4686 36.9659 31.6107 36.8883C31.7781 36.798 31.9438 36.706 32.1094 36.6116C32.2496 36.5324 32.3893 36.4511 32.5286 36.3676C32.6925 36.2702 32.8556 36.1712 33.0179 36.0707C33.1544 35.9852 33.291 35.8991 33.4264 35.8112C33.5879 35.7059 33.7484 35.5989 33.9079 35.49C34.0415 35.3992 34.1745 35.3077 34.3063 35.2139C34.3686 35.17 34.4328 35.1284 34.4951 35.0839L36.7252 38.7337C36.8039 38.8648 36.8278 39.0217 36.7918 39.1703C36.7558 39.3189 36.6628 39.4475 36.5329 39.5281Z" fill="black"/>
<path d="M19 21.6562C19.9838 21.6562 20.7812 20.8588 20.7812 19.875C20.7812 18.8912 19.9838 18.0938 19 18.0938C18.0162 18.0938 17.2188 18.8912 17.2188 19.875C17.2188 20.8588 18.0162 21.6562 19 21.6562Z" fill="#FF0000"/>
<path d="M19 22.25C18.5303 22.25 18.0711 22.1107 17.6805 21.8497C17.29 21.5888 16.9855 21.2178 16.8058 20.7839C16.626 20.3499 16.579 19.8724 16.6706 19.4117C16.7623 18.951 16.9885 18.5278 17.3206 18.1956C17.6528 17.8635 18.076 17.6373 18.5367 17.5456C18.9974 17.454 19.4749 17.501 19.9089 17.6808C20.3428 17.8605 20.7138 18.165 20.9747 18.5555C21.2357 18.9461 21.375 19.4053 21.375 19.875C21.375 20.5049 21.1248 21.109 20.6794 21.5544C20.234 21.9998 19.6299 22.25 19 22.25ZM19 18.6875C18.7651 18.6875 18.5355 18.7571 18.3403 18.8876C18.145 19.0181 17.9928 19.2036 17.9029 19.4206C17.813 19.6376 17.7895 19.8763 17.8353 20.1067C17.8811 20.337 17.9942 20.5486 18.1603 20.7147C18.3264 20.8808 18.538 20.9939 18.7683 21.0397C18.9987 21.0855 19.2374 21.062 19.4544 20.9721C19.6714 20.8822 19.8569 20.73 19.9874 20.5347C20.1179 20.3395 20.1875 20.1099 20.1875 19.875C20.1875 19.5601 20.0624 19.258 19.8397 19.0353C19.617 18.8126 19.3149 18.6875 19 18.6875Z" fill="black"/>
<path d="M10.6875 34.125C11.6713 34.125 12.4688 33.3275 12.4688 32.3438C12.4688 31.36 11.6713 30.5625 10.6875 30.5625C9.70374 30.5625 8.90625 31.36 8.90625 32.3438C8.90625 33.3275 9.70374 34.125 10.6875 34.125Z" fill="#FF0000"/>
<path d="M10.6875 34.7188C10.2178 34.7188 9.75859 34.5795 9.36802 34.3185C8.97746 34.0575 8.67305 33.6866 8.49329 33.2526C8.31353 32.8187 8.2665 32.3411 8.35814 31.8804C8.44978 31.4197 8.67597 30.9965 9.00812 30.6644C9.34027 30.3322 9.76346 30.106 10.2242 30.0144C10.6849 29.9227 11.1624 29.9698 11.5964 30.1495C12.0303 30.3293 12.4013 30.6337 12.6622 31.0243C12.9232 31.4148 13.0625 31.874 13.0625 32.3438C13.0625 32.9736 12.8123 33.5777 12.3669 34.0231C11.9215 34.4685 11.3174 34.7188 10.6875 34.7188ZM10.6875 31.1563C10.4526 31.1563 10.223 31.2259 10.0278 31.3564C9.83248 31.4869 9.68027 31.6723 9.59039 31.8893C9.50052 32.1063 9.477 32.3451 9.52282 32.5754C9.56864 32.8058 9.68174 33.0174 9.84781 33.1834C10.0139 33.3495 10.2255 33.4626 10.4558 33.5084C10.6862 33.5543 10.925 33.5307 11.1419 33.4409C11.3589 33.351 11.5444 33.1988 11.6749 33.0035C11.8054 32.8082 11.875 32.5786 11.875 32.3438C11.875 32.0288 11.7499 31.7268 11.5272 31.5041C11.3045 31.2814 11.0024 31.1563 10.6875 31.1563Z" fill="black"/>
<path d="M27.3125 34.125C28.2963 34.125 29.0938 33.3275 29.0938 32.3438C29.0938 31.36 28.2963 30.5625 27.3125 30.5625C26.3287 30.5625 25.5312 31.36 25.5312 32.3438C25.5312 33.3275 26.3287 34.125 27.3125 34.125Z" fill="#FF0000"/>
<path d="M27.3125 34.7188C26.8428 34.7188 26.3836 34.5795 25.993 34.3185C25.6025 34.0575 25.298 33.6866 25.1183 33.2526C24.9385 32.8187 24.8915 32.3411 24.9831 31.8804C25.0748 31.4197 25.301 30.9965 25.6331 30.6644C25.9653 30.3322 26.3885 30.106 26.8492 30.0144C27.3099 29.9227 27.7874 29.9698 28.2214 30.1495C28.6553 30.3293 29.0263 30.6337 29.2872 31.0243C29.5482 31.4148 29.6875 31.874 29.6875 32.3438C29.6875 32.9736 29.4373 33.5777 28.9919 34.0231C28.5465 34.4685 27.9424 34.7188 27.3125 34.7188ZM27.3125 31.1563C27.0776 31.1563 26.848 31.2259 26.6528 31.3564C26.4575 31.4869 26.3053 31.6723 26.2154 31.8893C26.1255 32.1063 26.102 32.3451 26.1478 32.5754C26.1936 32.8058 26.3067 33.0174 26.4728 33.1834C26.6389 33.3495 26.8505 33.4626 27.0808 33.5084C27.3112 33.5543 27.5499 33.5307 27.7669 33.4409C27.9839 33.351 28.1694 33.1988 28.2999 33.0035C28.4304 32.8082 28.5 32.5786 28.5 32.3438C28.5 32.0288 28.3749 31.7268 28.1522 31.5041C27.9295 31.2814 27.6274 31.1563 27.3125 31.1563Z" fill="black"/>
<path d="M19 35.9062C19.9838 35.9062 20.7812 35.1088 20.7812 34.125C20.7812 33.1412 19.9838 32.3438 19 32.3438C18.0162 32.3438 17.2188 33.1412 17.2188 34.125C17.2188 35.1088 18.0162 35.9062 19 35.9062Z" fill="#FF0000"/>
<path d="M19 36.5C18.5303 36.5 18.0711 36.3607 17.6805 36.0997C17.29 35.8388 16.9855 35.4678 16.8058 35.0339C16.626 34.5999 16.579 34.1224 16.6706 33.6617C16.7623 33.201 16.9885 32.7778 17.3206 32.4456C17.6528 32.1135 18.076 31.8873 18.5367 31.7956C18.9974 31.704 19.4749 31.751 19.9089 31.9308C20.3428 32.1105 20.7138 32.415 20.9747 32.8055C21.2357 33.1961 21.375 33.6553 21.375 34.125C21.375 34.7549 21.1248 35.359 20.6794 35.8044C20.234 36.2498 19.6299 36.5 19 36.5ZM19 32.9375C18.7651 32.9375 18.5355 33.0071 18.3403 33.1376C18.145 33.2681 17.9928 33.4536 17.9029 33.6706C17.813 33.8876 17.7895 34.1263 17.8353 34.3567C17.8811 34.587 17.9942 34.7986 18.1603 34.9647C18.3264 35.1308 18.538 35.2439 18.7683 35.2897C18.9987 35.3355 19.2374 35.312 19.4544 35.2221C19.6714 35.1322 19.8569 34.98 19.9874 34.7847C20.1179 34.5895 20.1875 34.3599 20.1875 34.125C20.1875 33.8101 20.0624 33.508 19.8397 33.2853C19.617 33.0626 19.3149 32.9375 19 32.9375Z" fill="black"/>
<path d="M14.25 27.5938C15.2338 27.5938 16.0312 26.7963 16.0312 25.8125C16.0312 24.8287 15.2338 24.0312 14.25 24.0312C13.2662 24.0312 12.4688 24.8287 12.4688 25.8125C12.4688 26.7963 13.2662 27.5938 14.25 27.5938Z" fill="#FF0000"/>
<path d="M14.25 28.1875C13.7803 28.1875 13.3211 28.0482 12.9305 27.7872C12.54 27.5263 12.2355 27.1553 12.0558 26.7214C11.876 26.2874 11.829 25.8099 11.9206 25.3492C12.0123 24.8885 12.2385 24.4653 12.5706 24.1331C12.9028 23.801 13.326 23.5748 13.7867 23.4831C14.2474 23.3915 14.7249 23.4385 15.1589 23.6183C15.5928 23.798 15.9638 24.1025 16.2247 24.493C16.4857 24.8836 16.625 25.3428 16.625 25.8125C16.625 26.4424 16.3748 27.0465 15.9294 27.4919C15.484 27.9373 14.8799 28.1875 14.25 28.1875ZM14.25 24.625C14.0151 24.625 13.7855 24.6946 13.5903 24.8251C13.395 24.9556 13.2428 25.1411 13.1529 25.3581C13.063 25.5751 13.0395 25.8138 13.0853 26.0442C13.1311 26.2745 13.2442 26.4861 13.4103 26.6522C13.5764 26.8183 13.788 26.9314 14.0183 26.9772C14.2487 27.023 14.4875 26.9995 14.7044 26.9096C14.9214 26.8197 15.1069 26.6675 15.2374 26.4722C15.3679 26.277 15.4375 26.0474 15.4375 25.8125C15.4375 25.4976 15.3124 25.1955 15.0897 24.9728C14.867 24.7501 14.5649 24.625 14.25 24.625Z" fill="black"/>
<path d="M23.75 27.5938C24.7338 27.5938 25.5312 26.7963 25.5312 25.8125C25.5312 24.8287 24.7338 24.0312 23.75 24.0312C22.7662 24.0312 21.9688 24.8287 21.9688 25.8125C21.9688 26.7963 22.7662 27.5938 23.75 27.5938Z" fill="#FF0000"/>
<path d="M23.75 28.1875C23.2803 28.1875 22.8211 28.0482 22.4305 27.7872C22.04 27.5263 21.7355 27.1553 21.5558 26.7214C21.376 26.2874 21.329 25.8099 21.4206 25.3492C21.5123 24.8885 21.7385 24.4653 22.0706 24.1331C22.4028 23.801 22.826 23.5748 23.2867 23.4831C23.7474 23.3915 24.2249 23.4385 24.6589 23.6183C25.0928 23.798 25.4638 24.1025 25.7247 24.493C25.9857 24.8836 26.125 25.3428 26.125 25.8125C26.125 26.4424 25.8748 27.0465 25.4294 27.4919C24.984 27.9373 24.3799 28.1875 23.75 28.1875ZM23.75 24.625C23.5151 24.625 23.2855 24.6946 23.0903 24.8251C22.895 24.9556 22.7428 25.1411 22.6529 25.3581C22.563 25.5751 22.5395 25.8138 22.5853 26.0442C22.6311 26.2745 22.7442 26.4861 22.9103 26.6522C23.0764 26.8183 23.288 26.9314 23.5183 26.9772C23.7487 27.023 23.9874 26.9995 24.2044 26.9096C24.4214 26.8197 24.6069 26.6675 24.7374 26.4722C24.8679 26.277 24.9375 26.0474 24.9375 25.8125C24.9375 25.4976 24.8124 25.1955 24.5897 24.9728C24.367 24.7501 24.0649 24.625 23.75 24.625Z" fill="black"/>
<path d="M16.0312 30.5625H14.8438C14.6863 30.5625 14.5353 30.4999 14.4239 30.3886C14.3126 30.2772 14.25 30.1262 14.25 29.9688C14.25 29.8113 14.3126 29.6603 14.4239 29.5489C14.5353 29.4376 14.6863 29.375 14.8438 29.375H16.0312C16.1887 29.375 16.3397 29.4376 16.4511 29.5489C16.5624 29.6603 16.625 29.8113 16.625 29.9688C16.625 30.1262 16.5624 30.2772 16.4511 30.3886C16.3397 30.4999 16.1887 30.5625 16.0312 30.5625Z" fill="#D39953"/>
<path d="M23.1562 30.5625H21.9688C21.8113 30.5625 21.6603 30.4999 21.5489 30.3886C21.4376 30.2772 21.375 30.1262 21.375 29.9688C21.375 29.8113 21.4376 29.6603 21.5489 29.5489C21.6603 29.4376 21.8113 29.375 21.9688 29.375H23.1562C23.3137 29.375 23.4647 29.4376 23.5761 29.5489C23.6874 29.6603 23.75 29.8113 23.75 29.9688C23.75 30.1262 23.6874 30.2772 23.5761 30.3886C23.4647 30.4999 23.3137 30.5625 23.1562 30.5625Z" fill="#D39953"/>
<path d="M19.5938 25.8125H18.4062C18.2488 25.8125 18.0978 25.7499 17.9864 25.6386C17.8751 25.5272 17.8125 25.3762 17.8125 25.2188C17.8125 25.0613 17.8751 24.9103 17.9864 24.7989C18.0978 24.6876 18.2488 24.625 18.4062 24.625H19.5938C19.7512 24.625 19.9022 24.6876 20.0136 24.7989C20.1249 24.9103 20.1875 25.0613 20.1875 25.2188C20.1875 25.3762 20.1249 25.5272 20.0136 25.6386C19.9022 25.7499 19.7512 25.8125 19.5938 25.8125Z" fill="#D39953"/>
<path d="M14.8438 22.25H13.6562C13.4988 22.25 13.3478 22.1874 13.2364 22.0761C13.1251 21.9647 13.0625 21.8137 13.0625 21.6562C13.0625 21.4988 13.1251 21.3478 13.2364 21.2364C13.3478 21.1251 13.4988 21.0625 13.6562 21.0625H14.8438C15.0012 21.0625 15.1522 21.1251 15.2636 21.2364C15.3749 21.3478 15.4375 21.4988 15.4375 21.6562C15.4375 21.8137 15.3749 21.9647 15.2636 22.0761C15.1522 22.1874 15.0012 22.25 14.8438 22.25Z" fill="#D39953"/>
<path d="M24.3438 22.25H23.1562C22.9988 22.25 22.8478 22.1874 22.7364 22.0761C22.6251 21.9647 22.5625 21.8137 22.5625 21.6562C22.5625 21.4988 22.6251 21.3478 22.7364 21.2364C22.8478 21.1251 22.9988 21.0625 23.1562 21.0625H24.3438C24.5012 21.0625 24.6522 21.1251 24.7636 21.2364C24.8749 21.3478 24.9375 21.4988 24.9375 21.6562C24.9375 21.8137 24.8749 21.9647 24.7636 22.0761C24.6522 22.1874 24.5012 22.25 24.3438 22.25Z" fill="#D39953"/>
</g>
<defs>
<clipPath id="clip0_0_8">
<rect width="38" height="38" fill="white" transform="translate(0 8)"/>
</clipPath>
</defs>
</svg>
